<svg width="24" height="24" viewBox="0 0 24 24" fill="none" xmlns="http://www.w3.org/2000/svg">
<path d="M3 17.979V13.8228C3 12.0103 4.46875 10.5311 6.29167 10.5311H16.8854C18.6979 10.5311 20.1771 11.9999 20.1771 13.8228V17.979C20.1771 19.7915 18.7083 21.2707 16.8854 21.2707H6.29167C4.46875 21.2707 3 19.802 3 17.979Z" stroke="#333333" stroke-width="1.5625" stroke-linecap="round" stroke-linejoin="round"/>
<path d="M6.21875 10.5417V7.36459C6.21875 4.40625 8.62499 2 11.5833 2C14.5417 2 16.9479 4.40625 16.9479 7.36459V10.5417H6.21875Z" stroke="#333333" stroke-width="1.5625" stroke-linecap="round" stroke-linejoin="round"/>
<path d="M11.5833 18.0521V15.3646" stroke="#333333" stroke-width="1.5625" stroke-linecap="round" stroke-linejoin="round"/>
<path d="M11.5833 15.9063C12.1758 15.9063 12.6562 15.426 12.6562 14.8334C12.6562 14.2409 12.1758 13.7605 11.5833 13.7605C10.9907 13.7605 10.5104 14.2409 10.5104 14.8334C10.5104 15.426 10.9907 15.9063 11.5833 15.9063Z" stroke="#333333" stroke-width="1.5625" stroke-linecap="round" stroke-linejoin="round"/>
</svg>
